PathFileType	4	(X/Y/Z)	walk-thru1-2-TP.trc
DataRate	CameraRate	NumFrames	NumMarkers	Units	OrigDataRate	OrigDataStartFrame	OrigNumFrames
120.00	120.00	       5	60	mm	120.00	126	       502
Frame#	Time	Top.Head			Front.Head			Rear.Head			Jaw			C7			R.Clavicle			L.Clavicle			R.Shoulder			L.Shoulder			R.Scapula			L.Scapula			R.Scap.Inf			R.Biceps.Lateral			R.Elbow			R.Elbow.Medial			R.Forearm			R.Ulna			R.Radius			R.Wrist			R.Thumb.M1			R.Thumb.M2			R.Thumb.M3			R.Finger3.M1			R.Finger3.M2			R.Finger3.M3			L.Biceps.Lateral			L.Elbow			L.Elbow.Medial			L.Forearm			L.Ulna			L.Radius			L.Wrist			L.Thumb.M1			L.Thumb.M2			L.Thumb.M3			L.Finger3.M1			L.Finger3.M2			L.Finger3.M3			V.Sacral			R.ASIS			L.ASIS			R.Thigh			R.Thigh.Front			R.Knee			R.Knee.Medial			R.Shank			R.Ankle			R.Ankle.Medial			R.Heel			R.Toe			R.MedFoot			L.Thigh			L.Knee			L.Knee.Medial			L.Shank			L.Ankle			L.Ankle.Medial			L.Heel			L.Toe			L.MedFoot			V_mid_ASIS			V_R_Knee_JC			V_L_Knee_JC			V_R_Elbow_JC			V_L_Elbow_JC			V_R_Ankle_JC			V_L_Ankle_JC			V_R_Wrist_JC			V_L_Wrist_JC			V_R_ScaTrpz_1stMC_JC			V_R_1stMC_1stPP_JC			V_R_1stPP_1stDP_JC			V_R_LunCap_3rdMC_JC			V_R_3rdMC_3rdPP_JC			V_R_3rdPP_3rdMP_JC			V_R_3rdMP_3rdDP_JC			V_L_ScaTrpz_1stMC_JC			V_L_1stMC_1stPP_JC			V_L_1stPP_1stDP_JC			V_L_LunCap_3rdMC_JC			V_L_3rdMC_3rdPP_JC			V_L_3rdPP_3rdMP_JC			V_L_3rdMP_3rdPP_JC			V_ROOT_JC			V_R_Hip_JC			V_L_Hip_JC			V_R_GlenHum_JC			V_L_GlenHum_JC			V_ForeHead_Ctr			V_Vertex			V_Sagit_Lambdoid_Suture			V_R_FrontoTemp			V_L_FrontoTemporal			V_R_ParietalOccip			V_L_ParietalOcciptal			V_R_Temporal			V_L_Temporal			V_mid_FrontRearHead			V_mid_RLGlenHumCtrs			V_C7_vert			V_C1_vert			V_Mid_Hip			
		X1	Y1	Z1	X2	Y2	Z2	X3	Y3	Z3	X4	Y4	Z4	X5	Y5	Z5	X6	Y6	Z6	X7	Y7	Z7	X8	Y8	Z8	X9	Y9	Z9	X10	Y10	Z10	X11	Y11	Z11	X12	Y12	Z12	X13	Y13	Z13	X14	Y14	Z14	X15	Y15	Z15	X16	Y16	Z16	X17	Y17	Z17	X18	Y18	Z18	X19	Y19	Z19	X20	Y20	Z20	X21	Y21	Z21	X22	Y22	Z22	X23	Y23	Z23	X24	Y24	Z24	X25	Y25	Z25	X26	Y26	Z26	X27	Y27	Z27	X28	Y28	Z28	X29	Y29	Z29	X30	Y30	Z30	X31	Y31	Z31	X32	Y32	Z32	X33	Y33	Z33	X34	Y34	Z34	X35	Y35	Z35	X36	Y36	Z36	X37	Y37	Z37	X38	Y38	Z38	X39	Y39	Z39	X40	Y40	Z40	X41	Y41	Z41	X42	Y42	Z42	X43	Y43	Z43	X44	Y44	Z44	X45	Y45	Z45	X46	Y46	Z46	X47	Y47	Z47	X48	Y48	Z48	X49	Y49	Z49	X50	Y50	Z50	X51	Y51	Z51	X52	Y52	Z52	X53	Y53	Z53	X54	Y54	Z54	X55	Y55	Z55	X56	Y56	Z56	X57	Y57	Z57	X58	Y58	Z58	X59	Y59	Z59	X60	Y60	Z60	

126	1.042	-73.78215	36.17099	1758.38000	21.96546	16.92827	1634.60840	-207.76273	38.16565	1690.07263	-74.34871	16.40396	1462.79272	-304.27338	15.34649	1564.86938	-198.71915	-100.90836	1488.19165	-206.15614	144.87474	1468.24988	-242.56157	-208.43973	1481.05383	-261.09341	246.42274	1464.84009	-364.39246	-88.10264	1479.44702	-378.55893	104.79794	1465.51636	-395.89636	-96.40620	1390.98206	-274.48557	-250.62540	1343.85266	-332.43198	-292.91422	1161.75842	-337.87756	-194.00504	1148.37317	-236.21652	-283.89294	1099.59045	-289.39972	-296.71048	960.57251	-176.64610	-277.01169	937.57831	-169.18526	-321.77725	905.97119	-156.99498	-265.90533	897.08588	-154.83430	-230.76898	855.96692	-155.84430	-221.31175	805.96930	-147.39201	-319.94824	823.02863	-185.65851	-268.70737	771.29553	-217.81166	-229.50246	808.44818	-326.04706	265.15186	1321.71948	-399.67078	267.61069	1156.43152	-407.59125	171.02925	1136.66382	-323.22528	270.56784	1067.40454	-397.38611	287.44592	969.02832	-307.73428	271.08746	902.52405	-333.98923	309.59949	871.28516	-292.12357	268.00284	843.90594	-276.70358	243.69382	798.38855	-274.13760	243.48514	748.59338	-322.48267	320.18457	770.13623	-326.99854	287.03876	712.48688	-334.69305	226.85178	715.73511	-424.31393	3.43182	1114.07288	-230.43069	-187.33861	1052.51135	-233.22205	170.25085	1056.55273	-292.31998	-178.52144	671.51093	-235.48477	-96.60984	548.56067	-300.77133	-158.32138	503.52377	-311.67831	-40.26074	505.18964	-397.36926	-119.62476	302.62247	-584.99042	-150.94124	141.92262	-556.34363	-49.24979	152.89008	-653.71332	-95.74274	133.35480	-450.00583	-97.35689	38.24330	-485.06158	-74.55151	92.22593	-190.93924	163.62431	678.29114	-157.18666	139.11702	540.91718	-168.85124	32.08660	519.61621	-139.19006	94.82480	330.76797	-223.38535	110.41730	79.76581	-176.63043	20.64456	111.47334	-261.24536	42.27185	46.77632	-38.22228	103.61969	43.39910	-102.85271	58.61153	85.99081																																																																																																																															
127	1.050	-67.38274	37.56470	1759.70935	27.62103	18.40564	1635.67896	-200.86177	39.47076	1691.18628	-68.42121	17.40410	1463.86426	-299.40677	19.05817	1565.14099	-192.08437	-98.51687	1489.22070	-198.04843	147.46118	1470.11255	-235.71404	-206.90105	1482.20300	-254.50308	246.41237	1466.69800	-358.84518	-85.83818	1481.05725	-371.38257	106.94706	1465.74048	-390.62012	-93.58733	1391.73096	-268.75595	-248.03644	1344.80005	-328.43033	-290.04968	1162.49634	-332.21048	-191.73204	1150.22009	-232.55586	-281.05502	1100.86963	-286.46271	-294.18329	962.03888	-173.05872	-277.02209	939.60376	-167.13358	-321.48083	907.20111	-152.72691	-266.30969	898.87744	-148.95427	-232.09526	857.00262	-148.13010	-223.28935	806.91016	-144.75604	-320.44260	824.35767	-179.83745	-266.70132	772.76215	-210.99538	-225.97963	809.18213	-319.09885	265.75336	1321.90283	-391.93500	269.32437	1156.28259	-399.50220	173.17351	1136.28650	-315.34451	271.41702	1067.50098	-390.42749	288.67563	969.75916	-299.08932	272.09387	902.96100	-325.07043	311.86984	872.60699	-283.23926	269.78491	845.52460	-269.40503	244.00182	798.63843	-266.17920	246.68553	748.92627	-314.00510	320.47064	771.15338	-318.55884	288.50558	713.42413	-325.13834	230.58228	716.24207	-418.11118	6.31210	1114.80652	-224.75868	-186.00194	1053.46716	-225.49748	170.64195	1056.15308	-282.93036	-178.37155	672.23663	-222.27750	-100.23550	549.32379	-289.30612	-160.43306	504.36743	-296.92941	-42.65328	505.33054	-387.40707	-121.36533	303.90854	-579.31042	-151.20482	147.44672	-549.43811	-48.61317	157.38342	-647.44653	-98.21916	141.10437	-448.97147	-97.88290	38.64605	-480.56421	-75.64638	93.83963	-187.87015	165.32281	677.47681	-153.07874	140.30269	539.78986	-165.29411	33.17038	519.21100	-137.36371	95.16385	330.15887	-223.20963	110.13494	79.59647	-176.50224	20.62704	111.59646	-261.15121	42.83384	46.96557	-38.39624	103.05172	42.98400	-102.77254	58.64869	85.94855																																																																																																																															
128	1.058	-61.21415	39.62141	1759.99023	34.00931	19.10229	1636.13281	-195.00650	41.88026	1691.78931	-61.59634	18.50652	1465.28735	-291.89798	21.64702	1565.74609	-186.25301	-96.85351	1489.99158	-191.11157	148.82364	1470.46533	-230.26479	-205.07114	1483.65735	-247.86418	249.10751	1466.58801	-352.30682	-83.40546	1482.06152	-364.57739	108.69007	1466.23608	-384.31012	-91.45293	1392.42822	-263.51373	-247.83606	1345.30945	-324.74725	-288.15042	1164.13147	-329.02957	-188.71687	1152.25049	-229.45444	-279.89755	1100.91418	-284.00455	-291.58585	963.60663	-169.95480	-276.76852	939.82678	-165.03502	-320.80331	908.00525	-148.61014	-266.87177	900.12378	-142.71999	-233.62254	858.06317	-139.53076	-225.26004	807.24200	-142.00157	-321.32196	824.92389	-175.30252	-266.39963	774.48096	-204.75255	-223.68852	809.49567	-312.52420	268.17139	1323.00012	-383.80505	270.97714	1157.38733	-391.26712	175.09244	1137.48694	-306.75903	273.32095	1068.19934	-381.48178	290.27783	970.06354	-291.55118	273.77859	903.80750	-317.69226	313.41849	873.26141	-275.39359	271.76608	846.37012	-261.59485	247.13405	799.46332	-258.81543	247.91145	749.69568	-304.52090	324.94424	770.86505	-310.33899	289.65091	714.55621	-317.67169	230.80672	717.22815	-411.20355	8.54381	1115.15491	-219.52364	-184.20560	1054.52209	-219.05461	171.69830	1057.64258	-273.09610	-178.97253	672.75446	-209.29094	-102.02393	549.62189	-276.66895	-161.42613	504.64328	-279.72873	-43.56675	502.65598	-378.67734	-121.97349	305.48013	-573.02936	-151.58153	153.17345	-541.72736	-50.72743	161.42856	-640.52863	-98.48583	149.03542	-448.13791	-97.45072	38.33821	-475.55710	-76.72693	95.02287	-184.18178	168.18687	676.48291	-151.52061	141.57866	539.45746	-162.23392	33.74337	519.16571	-135.46953	96.75065	329.96985	-223.75183	110.48399	79.59018	-176.51552	20.74017	111.64769	-261.45547	43.23547	47.06499	-38.70926	102.31065	42.27361	-102.76045	58.65420	85.67066																																																																																																																															
129	1.067	-55.41234	41.79545	1761.25378	40.27518	21.39299	1637.73083	-189.78606	43.84423	1691.59851	-55.47078	19.81131	1466.07117	-285.46613	23.09139	1566.31299	-180.22787	-95.34422	1491.01501	-185.13928	150.34032	1470.82532	-225.12383	-203.85295	1484.96216	-238.99922	251.10902	1466.51868	-346.80127	-81.53250	1482.55481	-357.80472	111.40614	1466.94019	-378.65704	-89.56462	1393.56091	-257.75586	-244.40193	1345.18530	-320.78497	-284.13150	1165.15735	-321.83212	-186.09808	1153.27832	-225.65662	-277.30746	1101.66028	-281.60272	-289.01215	964.71564	-165.56915	-274.85379	939.76508	-163.24300	-319.72919	908.76080	-144.85687	-267.26559	900.06854	-137.06639	-234.42126	859.46918	-131.43388	-228.03288	807.22778	-138.86876	-322.04160	825.25110	-169.00117	-267.05618	774.66791	-197.64763	-223.33337	809.23438	-303.41434	270.32428	1323.68958	-377.34387	273.07486	1157.82288	-384.67682	177.92203	1137.06787	-299.61435	275.32489	1068.65710	-373.54843	293.60910	970.59796	-284.19962	276.14798	903.87604	-308.72672	314.77219	872.91827	-267.28732	273.53827	846.18427	-253.51488	247.40637	799.67328	-249.80954	249.41130	750.44745	-296.51340	324.75397	771.95770	-301.98608	291.66855	715.17059	-309.12735	233.03683	717.84515	-405.03180	9.98803	1115.95203	-214.17886	-182.83649	1054.96545	-211.70131	172.71252	1057.80017	-263.27216	-178.80769	673.08844	-197.23817	-104.43363	550.13428	-265.16730	-162.03976	505.04279	-267.11798	-44.47300	502.67157	-368.83224	-123.15569	307.17828	-565.87634	-152.84795	158.86423	-533.28979	-51.08768	166.38902	-632.91772	-97.94383	157.92024	-446.56958	-98.21441	38.62141	-470.21146	-78.48365	97.25989	-182.27481	168.69810	675.80505	-147.77995	143.41682	539.47296	-159.16994	34.32406	519.22540	-133.15506	98.40353	329.59473	-223.11362	110.16911	79.19202	-176.27962	21.24851	111.48557	-261.57080	43.33538	47.19809	-39.05573	101.84660	41.88055	-102.93733	59.41904	85.56071																																																																																																																															
130	1.075	-49.21673	42.74576	1761.73328	46.20485	21.89033	1638.50098	-184.24286	46.20289	1691.23901	-49.78634	21.40168	1466.75085	-279.16055	25.65983	1566.84473	-174.82353	-93.92404	1491.54138	-178.55420	151.89745	1470.96313	-219.91267	-201.64282	1485.80811	-231.93279	253.03125	1466.56311	-341.01758	-78.72327	1483.36255	-350.96695	114.16228	1467.95911	-372.11227	-86.23981	1394.30054	-253.32993	-241.17581	1346.80542	-317.82843	-281.83588	1165.61353	-320.12387	-183.70172	1154.80664	-222.12206	-276.03546	1102.06226	-278.12900	-285.45685	964.64386	-163.97598	-274.39810	941.04694	-159.61469	-319.64651	909.36859	-140.97145	-266.27570	900.36066	-131.05194	-236.62875	858.59308	-123.99094	-230.54422	807.07080	-135.28693	-324.75473	827.08978	-162.93333	-268.07062	774.67731	-192.08202	-223.41170	809.03735	-296.97351	272.97583	1324.40698	-368.89896	275.63931	1158.51086	-377.39236	180.34453	1137.78918	-292.08929	277.17068	1069.09753	-366.06149	295.77036	970.60651	-274.11530	277.89841	904.71930	-300.70493	317.54105	873.88153	-258.13892	275.43478	847.39545	-245.45839	248.76038	801.16193	-241.70041	251.50105	750.38916	-287.38501	327.31033	772.23230	-293.06668	293.23050	714.70477	-302.04596	235.46606	718.64838	-398.75226	12.33154	1116.42004	-208.85977	-181.75926	1056.00073	-207.35245	170.14255	1058.92566	-252.79135	-178.84932	673.87512	-185.41792	-107.38011	551.49677	-252.58698	-162.95189	506.74634	-251.80675	-45.91746	501.48752	-357.49884	-124.33471	308.19052	-558.10730	-153.20363	164.23625	-523.86249	-52.74987	170.02229	-624.64368	-98.72973	165.24333	-442.91705	-99.40107	39.16224	-464.13409	-79.57835	99.04945	-177.54517	170.26210	675.82391	-145.29439	143.95029	538.39868	-156.08011	36.22330	519.00543	-131.96902	99.41946	328.74438	-223.45845	111.17897	79.45596	-176.04688	21.33209	111.46617	-261.75186	43.40177	47.18523	-38.80663	102.15418	41.86116	-102.86370	59.91433	85.29948																																																																																																																															
